#!OML:ASF E:/inclinewalkrobotboard/Project1/Captureday1/Session1/subject1.ASF
:FULLY-SPECIFIED
:DEGREES
38
root 0 0 0 -2.1063937980445395 23.442101308703453 9.680404503719066
lowerback -4.401287384160798 -6.115823480319934 -6.721678826307042
upperback -8.562395950341337 -7.537735617865454 7.072986008263241
thorax -6.104939474270009 -2.5611554172773117 11.259477224848634
lowerneck -5.175983934828352 -9.065288208051818 -7.76231091661582
upperneck 32.359980480816795 -11.617453777151823 1.617285461944764
head 12.086476998894192 -5.94451025599929 0.2744011965401424
rclavicle -3.805692672269137E-15 -3.3287232893658446E-15
rhumerus -28.632050566767283 -24.647526456141904 -17.577333723432446
rradius 55.5602489515384
rwrist -4.222646360805001
rhand -26.692173079789498 31.937825224136155
rfingers 7.125019999999971
rthumb -0.05705693167310244 1.0151505303310984
lclavicle -3.6362931131869576E-16 -3.734894710460396E-15
lhumerus 43.27405804609547 14.694430990265818 19.60307155206845
lradius 60.31216456902167
lwrist -20.3858967980934
lhand -11.449439924988479 7.322144596122566
lfingers 7.125020000000017
lthumb 14.465215084889572 35.82448798333533
rfemur 114.61520155142661 -169.46046846811527 -132.8372937176611
rtibia 30.232485479632196
rfoot -85.75995248954663 -23.527469619088592
rtoes 37.13805208295544
lfemur -85.73234100753066 23.587054357163886 -59.810114992398574
ltibia 67.13051570715295
lfoot 20.825689866525526 33.969507424164185
ltoes 1.8039786797175932
39
root 0 0 0 -1.9772401721110953 23.143294764535437 9.609488709581859
lowerback -4.4233666183320945 -6.116988960423907 -6.706761181477045
upperback -8.582891629440036 -7.543447381539858 7.064483503740771
thorax -6.112621812382818 -2.5675506598457236 11.24257963735978
lowerneck -5.1924421787138755 -9.038582701890679 -7.745486846374247
upperneck 32.366926652517215 -11.595267727991363 1.6533760627020584
head 12.094232537975143 -5.929390901340857 0.28689519281466236
rclavicle -3.3752264384470438E-15 -2.9473796418653743E-15
rhumerus -26.05296310131007 -25.03424682429473 -16.645191631679722
rradius 57.53047418716932
rwrist -5.964498851568653
rhand -26.836092450000944 32.11208084839378
rfingers 7.125019999999969
rthumb -0.20158251258058257 1.1993364841329353
lclavicle -2.535787908504484E-16 -3.648915064864191E-15
lhumerus 42.69698155737298 13.980137472215528 19.42585404848828
lradius 60.670137785110015
lwrist -20.215933712537268
lhand -11.027605001895722 7.345109463483581
lfingers 7.125020000000018
lthumb 14.867756559517467 35.75339688559301
rfemur 128.971085649889 -182.45705877481691 -144.14559386370746
rtibia 30.1260939634429
rfoot -82.35357591807008 -27.00615394835163
rtoes 34.694548550286996
lfemur -86.45251364657514 23.893460677246264 -59.59248073655445
ltibia 67.02626611565748
lfoot 20.267872392216187 34.22838763313237
ltoes 2.329764540089977
40
root 0 0 0 -1.8080426719305756 22.684245539623365 9.523398937828082
lowerback -4.451917548268764 -6.115757032492713 -6.694114495880989
upperback -8.60656604473016 -7.547783312557964 7.04863274837281
thorax -6.121031322692937 -2.573669556686629 11.219711943816172
lowerneck -5.214969619075225 -8.997506114302928 -7.716088342399146
upperneck 32.375508430791115 -11.560526714959622 1.7057580899709466
head 12.103994636690501 -5.90588367988481 0.30463712477146254
rclavicle -3.1460845257951935E-15 -2.6378376963411108E-15
rhumerus -23.674079998510678 -25.491316139773517 -15.783599954664048
rradius 59.42747899624117
rwrist -7.693689940210906
rhand -26.930241058405578 32.29313272113573
rfingers 7.125019999999967
rthumb -0.30160198152646345 1.3996610816893842
lclavicle -2.9483611667478373E-16 -3.712479777276243E-15
lhumerus 41.62664765887882 12.861702322247986 19.866829976646986
lradius 61.11925438551302
lwrist -19.551005832842094
lhand -10.489189540376795 7.420617972237466
lfingers 7.125020000000017
lthumb 15.379115042588223 35.689042914230875
rfemur 137.92048867815384 -188.3362599405275 -148.75513389779164
rtibia 29.823719827782966
rfoot -76.18134529764563 -30.717503672413518
rtoes 30.254569155483274
lfemur -86.80082930179029 24.081128562917225 -59.43737923857043
ltibia 66.67126338661203
lfoot 19.56600524577561 34.43606832579552
ltoes 2.5183071693768664
41
root 0 0 0 -1.713420914462418 22.443659687189044 9.467166836513746
lowerback -4.467042414388992 -6.114642452760194 -6.685424008112355
upperback -8.61756496883618 -7.549566168923217 7.040144844986978
thorax -6.123065728658622 -2.5774143926409847 11.206523027476837
lowerneck -5.230781379498654 -8.976232552575466 -7.701591033743857
upperneck 32.38085876886571 -11.543326891854454 1.7341778838782411
head 12.11052219654639 -5.8937744721816845 0.3144025161835432
rclavicle -3.1230729892975185E-15 -2.5464949282041976E-15
rhumerus -22.728300938250946 -25.69209080056543 -15.524925460943308
rradius 60.16700576790336
rwrist -8.447126048345726
rhand -26.93925900876033 32.35642820849102
rfingers 7.125019999999966
rthumb -0.3155887346080597 1.4765023136794362
lclavicle -3.0335130797984037E-16 -3.758849771281389E-15
lhumerus 40.88552697942191 12.166786868937873 20.34321135284854
lradius 61.365023639807276
lwrist -19.031158174885043
lhand -10.182083611036964 7.46821605625918
lfingers 7.125020000000015
lthumb 15.669447339074953 35.6495882279986
rfemur 141.29006804534117 -189.10451071328563 -149.13173507227157
rtibia 29.539472927494888
rfoot -71.3359052493519 -32.898368388544895
rtoes 27.043199232464616
lfemur -86.68894794525745 24.1288403470459 -59.384274343343
ltibia 66.5478661276185
lfoot 18.989804603487432 34.45819157853701
ltoes 2.381282857532698
42
root 0 0 0 -1.6397445061965072 22.227357058412455 9.415814125919818
lowerback -4.471042092021689 -6.112651576030791 -6.676897193438643
upperback -8.621205631951618 -7.549962435373015 7.031551109576986
thorax -6.123716291260444 -2.580349659247185 11.193370145908865
lowerneck -5.248315625570273 -8.95641343342718 -7.687939664796129
upperneck 32.380538061728366 -11.526646609947349 1.7597287386600153
head 12.114959181500332 -5.88231162944439 0.3231634202309521
rclavicle -3.1817513353315123E-15 -2.5043958021721177E-15
rhumerus -22.059218557203778 -25.84315369706196 -15.442233156521056
rradius 60.66215523999074
rwrist -9.02624109299828
rhand -26.929183085437288 32.39399491860339
rfingers 7.125019999999966
rthumb -0.31021786803439255 1.5268012774328312
lclavicle -3.836299593071119E-16 -3.795306257013219E-15
lhumerus 40.13800833478497 11.537963019729144 21.042295517845005
lradius 61.5607689655116
lwrist -18.44231856466516
lhand -9.983148752327073 7.508465104175784
lfingers 7.1250200000000135
lthumb 15.856358446266654 35.61922101641126
rfemur 143.72931468517908 -188.5566210039308 -148.4562275172284
rtibia 29.181581089791074
rfoot -65.8780748998692 -34.98412838836314
rtoes 23.78554781740655
lfemur -86.47458299142838 24.151147716197638 -59.33748278665995
ltibia 66.4642826428862
lfoot 18.418239533415193 34.438584022227744
ltoes 2.196978451114205
43
root 0 0 0 -1.5773031340548869 22.035206096049738 9.362240968347256
lowerback -4.467115700952959 -6.110070954327584 -6.666326045141314
upperback -8.619901803548103 -7.549425433754081 7.023330447066096
thorax -6.123230717633727 -2.583143088184463 11.179490771184001
lowerneck -5.268341182385386 -8.938557228750524 -7.676154505974854
upperneck 32.376883692866244 -11.511576044035499 1.7829941761853938
head 12.118587939185263 -5.871918931226487 0.33121017310459344
rclavicle -3.2769676175685746E-15 -2.4985398031027294E-15
rhumerus -21.52807640374491 -25.96471062944741 -15.473098427576623
rradius 61.018178326156004
rwrist -9.50738339569595
rhand -26.906521117379697 32.41365001838254
rfingers 7.1250199999999655
rthumb -0.2920184382195856 1.5589165343869524
lclavicle -5.047920516504175E-16 -3.837523638616891E-15
lhumerus 39.37396534409563 10.970010239610957 21.913708105059268
lradius 61.7197810403067
lwrist -17.82052821567149
lhand -9.906739093764186 7.53210737339414
lfingers 7.125020000000011
lthumb 15.926170884326396 35.59140184835112
rfemur 145.5800786226484 -186.97887758710155 -146.96940935507476
rtibia 28.81317318542525
rfoot -59.68742811402935 -37.032346834400684
rtoes 20.46511106544999
lfemur -86.17902284077064 24.158651561607975 -59.28042705050112
ltibia 66.44088554486585
lfoot 17.811334838261754 34.3794114075926
ltoes 1.9704589845081362
44
root 0 0 0 -1.5247044661352298 21.871165714062823 9.30350744937948
lowerback -4.454323761391554 -6.107021066103993 -6.652494215465134
upperback -8.613592235083814 -7.548146066864115 7.015717537518693
thorax -6.121831351968114 -2.586105363952008 11.164429463599562
lowerneck -5.291660539184548 -8.922993868224406 -7.666797357764698
upperneck 32.36975190452824 -11.498466736858685 1.8036621704996951
head 12.121587728353665 -5.862808028191128 0.3384837384175532
rclavicle -3.385924909980947E-15 -2.5106573391470912E-15
rhumerus -21.06835974189238 -26.071538563780727 -15.58610274406756
rradius 61.29210473579986
rwrist -9.934659347537789
rhand -26.87388372948628 32.421437254809334
rfingers 7.1250199999999655
rthumb -0.2637786078870512 1.5794773334926653
lclavicle -6.49615992777788E-16 -3.869752820138097E-15
lhumerus 38.5432626988378 10.450177866294288 22.964506436763656
lradius 61.852471992770745
lwrist -17.171480829484977
lhand -9.969314379865093 7.535116675103939
lfingers 7.125020000000007
lthumb 15.863152641410482 35.56447886050814
rfemur 146.97359275805275 -184.42087731040573 -144.67961807483653
rtibia 28.484741550271558
rfoot -52.60045288338743 -39.08160032217752
rtoes 17.005603820210222
lfemur -85.8169021880611 24.158116387184258 -59.20161260013947
ltibia 66.47783159816254
lfoot 17.171276957980115 34.2811991521676
ltoes 1.7192655911963133
45
root 0 0 0 -1.469423917051106 21.67999388484662 9.20001343147005
lowerback -4.409053282247084 -6.100979152633887 -6.622559663240203
upperback -8.590520534723238 -7.544241363854416 7.004881654872804
thorax -6.118576268957545 -2.5910479524336427 11.1373390280284
lowerneck -5.3365814680031365 -8.903304459715013 -7.657497295562062
upperneck 32.347153838398505 -11.481310342338904 1.8299910224938474
head 12.123620653476333 -5.851039084664065 0.34808786876590136
rclavicle -3.560782256844427E-15 -2.551267976908957E-15
rhumerus -20.44113751045567 -26.22672398356833 -15.890919744228242
rradius 61.61793645162845
rwrist -10.538021831735485
rhand -26.80678959306551 32.420091515444874
rfingers 7.1250199999999655
rthumb -0.2034984746982289 1.59929724078059
lclavicle -9.202558337185943E-16 -3.9137793355812426E-15
lhumerus 36.98665356360394 9.706221444016101 25.119820949829545
lradius 62.022447393498084
lwrist -16.0366263088668
lhand -10.417723371088238 7.499324728297985
lfingers 7.125020000000002
lthumb 15.42974048796113 35.534670232901846
rfemur 148.202342598971 -178.64208239266736 -139.57588695133546
rtibia 28.0783170583338
rfoot -40.07169725432243 -42.15510119551905
rtoes 11.38462307767364
lfemur -85.16106275753069 24.146401395399067 -59.02925183015435
ltibia 66.57144346717034
lfoot 16.170823006581347 34.082277247574666
ltoes 1.3244191322478542
